<!-- SVG placeholder for office -->
<svg width="800" height="600" xmlns="http://www.w3.org/2000/svg">
  <rect width="800" height="600" fill="#f1f5f9"/>
  <rect x="100" y="100" width="600" height="450" fill="#475569"/>
  <rect x="120" y="120" width="80" height="80" fill="#cbd5e1"/>
  <rect x="220" y="120" width="80" height="80" fill="#cbd5e1"/>
  <rect x="320" y="120" width="80" height="80" fill="#cbd5e1"/>
  <rect x="420" y="120" width="80" height="80" fill="#cbd5e1"/>
  <rect x="520" y="120" width="80" height="80" fill="#cbd5e1"/>
  <rect x="620" y="120" width="60" height="80" fill="#cbd5e1"/>
  <rect x="120" y="220" width="80" height="80" fill="#cbd5e1"/>
  <rect x="220" y="220" width="80" height="80" fill="#cbd5e1"/>
  <rect x="320" y="220" width="80" height="80" fill="#cbd5e1"/>
  <rect x="420" y="220" width="80" height="80" fill="#cbd5e1"/>
  <rect x="520" y="220" width="80" height="80" fill="#cbd5e1"/>
  <rect x="620" y="220" width="60" height="80" fill="#cbd5e1"/>
  <rect x="120" y="320" width="80" height="80" fill="#cbd5e1"/>
  <rect x="220" y="320" width="80" height="80" fill="#cbd5e1"/>
  <rect x="320" y="320" width="80" height="80" fill="#cbd5e1"/>
  <rect x="420" y="320" width="80" height="80" fill="#cbd5e1"/>
  <rect x="520" y="320" width="80" height="80" fill="#cbd5e1"/>
  <rect x="620" y="320" width="60" height="80" fill="#cbd5e1"/>
  <rect x="300" y="450" width="200" height="100" fill="#1e293b"/>
  <text x="400" y="580" text-anchor="middle" fill="#1e293b" font-family="Arial" font-size="24">Office Building</text>
</svg>