<!-- SVG placeholder for student flat -->
<svg width="800" height="600" xmlns="http://www.w3.org/2000/svg">
  <rect width="800" height="600" fill="#fef7ff"/>
  <rect x="200" y="200" width="400" height="300" fill="#a855f7"/>
  <rect x="220" y="220" width="60" height="60" fill="#f3e8ff"/>
  <rect x="300" y="220" width="60" height="60" fill="#f3e8ff"/>
  <rect x="380" y="220" width="60" height="60" fill="#f3e8ff"/>
  <rect x="460" y="220" width="60" height="60" fill="#f3e8ff"/>
  <rect x="540" y="220" width="40" height="60" fill="#f3e8ff"/>
  <rect x="220" y="300" width="60" height="60" fill="#f3e8ff"/>
  <rect x="300" y="300" width="60" height="60" fill="#f3e8ff"/>
  <rect x="380" y="300" width="60" height="60" fill="#f3e8ff"/>
  <rect x="460" y="300" width="60" height="60" fill="#f3e8ff"/>
  <rect x="540" y="300" width="40" height="60" fill="#f3e8ff"/>
  <rect x="220" y="380" width="60" height="60" fill="#f3e8ff"/>
  <rect x="300" y="380" width="60" height="60" fill="#f3e8ff"/>
  <rect x="380" y="380" width="60" height="60" fill="#f3e8ff"/>
  <rect x="460" y="380" width="60" height="60" fill="#f3e8ff"/>
  <rect x="540" y="380" width="40" height="60" fill="#f3e8ff"/>
  <rect x="350" y="460" width="100" height="40" fill="#7c3aed"/>
  <text x="400" y="550" text-anchor="middle" fill="#6b21a8" font-family="Arial" font-size="24">Student Accommodation</text>
</svg>